<?xml version="1.0" encoding="UTF-8" standalone="no"?>
<svg
   xmlns:dc="http://purl.org/dc/elements/1.1/"
   xmlns:cc="http://creativecommons.org/ns#"
   xmlns:rdf="http://www.w3.org/1999/02/22-rdf-syntax-ns#"
   xmlns:svg="http://www.w3.org/2000/svg"
   xmlns="http://www.w3.org/2000/svg"
   xmlns:sodipodi="http://sodipodi.sourceforge.net/DTD/sodipodi-0.dtd"
   xmlns:inkscape="http://www.inkscape.org/namespaces/inkscape"
   height="40"
   viewBox="0 0 40 40"
   width="40"
   version="1.1"
   id="svg6"
   sodipodi:docname="ico_chart.svg"
   inkscape:version="0.92.1 r15371"
   style="fill:#000000">
  <metadata
     id="metadata12">
    <rdf:RDF>
      <cc:Work
         rdf:about="">
        <dc:format>image/svg+xml</dc:format>
        <dc:type
           rdf:resource="http://purl.org/dc/dcmitype/StillImage" />
        <dc:title></dc:title>
      </cc:Work>
    </rdf:RDF>
  </metadata>
  <defs
     id="defs10" />
  <sodipodi:namedview
     pagecolor="#ffffff"
     bordercolor="#666666"
     borderopacity="1"
     objecttolerance="10"
     gridtolerance="10"
     guidetolerance="10"
     inkscape:pageopacity="0"
     inkscape:pageshadow="2"
     inkscape:window-width="1920"
     inkscape:window-height="1041"
     id="namedview8"
     showgrid="false"
     inkscape:zoom="9.8333333"
     inkscape:cx="16.830508"
     inkscape:cy="13.728813"
     inkscape:window-x="1920"
     inkscape:window-y="0"
     inkscape:window-maximized="1"
     inkscape:current-layer="svg6" />
  <g
     transform="matrix(1.5413628,0,0,1.5413628,-526.77488,-488.84417)"
     id="g4154-1-4"
     style="display:inline;fill:#ffffff;fill-opacity:1;stroke-width:0.59030628">
    <g
       style="fill:#ffffff;fill-opacity:1;stroke:none;stroke-width:0.59030628"
       id="g4158-3-5"
       transform="matrix(0.99674106,0,0,0.99674106,-3.7629798,-1.4896194)">
      <g
         transform="matrix(1.1538642,0,0,1.1538642,345.82346,318.85365)"
         id="g4160-8-5"
         style="fill:#ffffff;fill-opacity:1;stroke:none;stroke-width:0.59030628">
        <path
           style="fill:#ffffff;fill-opacity:1;stroke:none;stroke-width:0.59030628"
           inkscape:connector-curvature="0"
           clip-path="url(#b-4)"
           d="m 23,8 c 0,1.1 -0.9,2 -2,2 -0.18,0 -0.35,-0.02 -0.51,-0.07 l -3.56,3.55 C 16.98,13.64 17,13.82 17,14 c 0,1.1 -0.9,2 -2,2 -1.1,0 -2,-0.9 -2,-2 0,-0.18 0.02,-0.36 0.07,-0.52 L 10.52,10.93 C 10.36,10.98 10.18,11 10,11 9.82,11 9.64,10.98 9.48,10.93 L 4.93,15.49 C 4.98,15.65 5,15.82 5,16 5,17.1 4.1,18 3,18 1.9,18 1,17.1 1,16 c 0,-1.1 0.9,-2 2,-2 0.18,0 0.35,0.02 0.51,0.07 L 8.07,9.52 C 8.02,9.36 8,9.18 8,9 8,7.9 8.9,7 10,7 c 1.1,0 2,0.9 2,2 0,0.18 -0.02,0.36 -0.07,0.52 l 2.55,2.55 C 14.64,12.02 14.82,12 15,12 c 0.18,0 0.36,0.02 0.52,0.07 L 19.07,8.51 C 19.02,8.35 19,8.18 19,8 c 0,-1.1 0.9,-2 2,-2 1.1,0 2,0.9 2,2 z"
           id="path4162-7-1" />
      </g>
      <g
         style="fill:#ffffff;fill-opacity:1;stroke:none;stroke-width:0.59030628"
         id="g4164-4-7"
         transform="matrix(1.1538642,0,0,1.1538642,325.06748,328.09867)" />
    </g>
  </g>
</svg>
