<?xml version="1.0" encoding="UTF-8" standalone="no"?>
<svg
   xmlns:dc="http://purl.org/dc/elements/1.1/"
   xmlns:cc="http://creativecommons.org/ns#"
   xmlns:rdf="http://www.w3.org/1999/02/22-rdf-syntax-ns#"
   xmlns:svg="http://www.w3.org/2000/svg"
   xmlns="http://www.w3.org/2000/svg"
   xmlns:sodipodi="http://sodipodi.sourceforge.net/DTD/sodipodi-0.dtd"
   xmlns:inkscape="http://www.inkscape.org/namespaces/inkscape"
   height="50"
   viewBox="0 0 50 50"
   width="50"
   version="1.1"
   id="svg6"
   sodipodi:docname="ico_light_560.svg"
   style="fill:#000000"
   inkscape:version="0.92.1 r15371">
  <metadata
     id="metadata12">
    <rdf:RDF>
      <cc:Work
         rdf:about="">
        <dc:format>image/svg+xml</dc:format>
        <dc:type
           rdf:resource="http://purl.org/dc/dcmitype/StillImage" />
        <dc:title></dc:title>
      </cc:Work>
    </rdf:RDF>
  </metadata>
  <defs
     id="defs10" />
  <sodipodi:namedview
     pagecolor="#ffffff"
     bordercolor="#666666"
     borderopacity="1"
     objecttolerance="10"
     gridtolerance="10"
     guidetolerance="10"
     inkscape:pageopacity="0"
     inkscape:pageshadow="2"
     inkscape:window-width="1920"
     inkscape:window-height="1041"
     id="namedview8"
     showgrid="false"
     inkscape:zoom="9.8333333"
     inkscape:cx="21.915254"
     inkscape:cy="15.152542"
     inkscape:window-x="1920"
     inkscape:window-y="0"
     inkscape:window-maximized="1"
     inkscape:current-layer="svg6" />
  <path
     d="M 0,26 H 24 V 50 H 0 Z"
     id="path2"
     inkscape:connector-curvature="0"
     style="fill:none" />
  <path
     d="M 13.329091,10.166364 9.3200005,6.1795455 6.179546,9.3200006 10.166364,13.306818 Z M 7.1818188,22.772726 H 0.50000074 v 4.454546 H 7.1818188 Z M 27.227274,0.61136414 H 22.772728 V 7.1818191 h 4.454546 z m 16.593179,8.70863646 -3.140452,-3.1404551 -3.986819,3.9868185 3.140454,3.140454 z m -7.149546,30.5136354 3.986819,4.009091 3.140455,-3.140455 -4.00909,-3.986819 z m 6.147274,-17.06091 v 4.454546 h 6.681818 V 22.772726 Z M 25,11.636364 c -7.372272,0 -13.363636,5.991363 -13.363636,13.363636 0,7.372272 5.991364,13.363636 13.363636,13.363636 7.372272,0 13.363636,-5.991364 13.363636,-13.363636 0,-7.372273 -5.991364,-13.363636 -13.363636,-13.363636 z m -2.227272,37.752272 h 4.454546 v -6.570455 h -4.454546 z m -16.593182,-8.708637 3.1404545,3.140454 3.9868185,-4.00909 -3.140455,-3.140454 z"
     id="path4"
     style="fill:#0097a7;fill-opacity:1;stroke-width:1.00000012"
     inkscape:connector-curvature="0" />
</svg>
