<?xml version="1.0" encoding="UTF-8" standalone="no"?>
<svg
   xmlns:dc="http://purl.org/dc/elements/1.1/"
   xmlns:cc="http://creativecommons.org/ns#"
   xmlns:rdf="http://www.w3.org/1999/02/22-rdf-syntax-ns#"
   xmlns:svg="http://www.w3.org/2000/svg"
   xmlns="http://www.w3.org/2000/svg"
   xmlns:sodipodi="http://sodipodi.sourceforge.net/DTD/sodipodi-0.dtd"
   xmlns:inkscape="http://www.inkscape.org/namespaces/inkscape"
   height="40"
   viewBox="0 0 40 40"
   width="40"
   version="1.1"
   id="svg6"
   sodipodi:docname="icon_light.svg"
   style="fill:#000000"
   inkscape:version="0.92.1 r15371">
  <metadata
     id="metadata12">
    <rdf:RDF>
      <cc:Work
         rdf:about="">
        <dc:format>image/svg+xml</dc:format>
        <dc:type
           rdf:resource="http://purl.org/dc/dcmitype/StillImage" />
        <dc:title></dc:title>
      </cc:Work>
    </rdf:RDF>
  </metadata>
  <defs
     id="defs10" />
  <sodipodi:namedview
     pagecolor="#ffffff"
     bordercolor="#666666"
     borderopacity="1"
     objecttolerance="10"
     gridtolerance="10"
     guidetolerance="10"
     inkscape:pageopacity="0"
     inkscape:pageshadow="2"
     inkscape:window-width="1920"
     inkscape:window-height="1041"
     id="namedview8"
     showgrid="false"
     inkscape:zoom="9.8333333"
     inkscape:cx="-9.9661017"
     inkscape:cy="12"
     inkscape:window-x="1920"
     inkscape:window-y="0"
     inkscape:window-maximized="1"
     inkscape:current-layer="svg6" />
  <path
     d="M 0,16 H 24 V 40 H 0 Z"
     id="path2"
     inkscape:connector-curvature="0"
     style="fill:none" />
  <path
     d="M 10.710909,8.193636 7.5199996,5.0204542 5.0204541,7.5199997 8.193636,10.693181 Z M 5.8181814,18.227272 H 0.4999995 v 3.545455 H 5.8181814 Z M 21.772728,0.58863591 H 18.227273 V 5.8181815 h 3.545455 z M 34.979545,7.5199997 32.480001,5.0204542 29.306819,8.193636 l 2.499545,2.499545 z m -5.690455,24.2863643 3.173182,3.190909 2.499546,-2.499546 -3.190908,-3.173182 z m 4.892728,-13.579092 v 3.545455 H 39.5 V 18.227272 Z M 20,9.3636361 C 14.132273,9.3636361 9.363636,14.132272 9.363636,20 9.363636,25.867727 14.132273,30.636364 20,30.636364 25.867727,30.636364 30.636364,25.867727 30.636364,20 30.636364,14.132272 25.867727,9.3636361 20,9.3636361 Z M 18.227273,39.411364 h 3.545455 V 34.181818 H 18.227273 Z M 5.0204541,32.48 7.5199996,34.979545 10.693182,31.788636 8.193636,29.289091 Z"
     id="path4"
     style="fill:#0097a7;fill-opacity:1;stroke-width:1.00000012"
     inkscape:connector-curvature="0" />
</svg>
