<?xml version="1.0" encoding="UTF-8" standalone="no"?>
<svg
   xmlns:dc="http://purl.org/dc/elements/1.1/"
   xmlns:cc="http://creativecommons.org/ns#"
   xmlns:rdf="http://www.w3.org/1999/02/22-rdf-syntax-ns#"
   xmlns:svg="http://www.w3.org/2000/svg"
   xmlns="http://www.w3.org/2000/svg"
   xmlns:sodipodi="http://sodipodi.sourceforge.net/DTD/sodipodi-0.dtd"
   xmlns:inkscape="http://www.inkscape.org/namespaces/inkscape"
   height="40"
   viewBox="0 0 40 40"
   width="40"
   version="1.1"
   id="svg8"
   sodipodi:docname="ico_camera.svg"
   style="fill:#000000"
   inkscape:version="0.92.1 r15371">
  <metadata
     id="metadata14">
    <rdf:RDF>
      <cc:Work
         rdf:about="">
        <dc:format>image/svg+xml</dc:format>
        <dc:type
           rdf:resource="http://purl.org/dc/dcmitype/StillImage" />
        <dc:title></dc:title>
      </cc:Work>
    </rdf:RDF>
  </metadata>
  <defs
     id="defs12" />
  <sodipodi:namedview
     pagecolor="#ffffff"
     bordercolor="#666666"
     borderopacity="1"
     objecttolerance="10"
     gridtolerance="10"
     guidetolerance="10"
     inkscape:pageopacity="0"
     inkscape:pageshadow="2"
     inkscape:window-width="1920"
     inkscape:window-height="1041"
     id="namedview10"
     showgrid="false"
     inkscape:zoom="9.8333333"
     inkscape:cx="-9.9661017"
     inkscape:cy="12"
     inkscape:window-x="1920"
     inkscape:window-y="0"
     inkscape:window-maximized="1"
     inkscape:current-layer="svg8" />
  <g
     id="g4493"
     transform="matrix(1.95,0,0,1.95,-3.4,-32.65)"
     style="stroke-width:0.51282054">
    <circle
       style="fill:#0097a7;fill-opacity:1;stroke-width:0.51282054"
       id="circle2"
       r="3.2"
       cy="28"
       cx="12" />
    <path
       inkscape:connector-curvature="0"
       style="fill:#0097a7;fill-opacity:1;stroke-width:0.51282054"
       id="path4"
       d="M 9,18 7.17,20 H 4 c -1.1,0 -2,0.9 -2,2 v 12 c 0,1.1 0.9,2 2,2 h 16 c 1.1,0 2,-0.9 2,-2 V 22 c 0,-1.1 -0.9,-2 -2,-2 H 16.83 L 15,18 Z m 3,15 c -2.76,0 -5,-2.24 -5,-5 0,-2.76 2.24,-5 5,-5 2.76,0 5,2.24 5,5 0,2.76 -2.24,5 -5,5 z" />
  </g>
  <path
     d="M 0,16 H 24 V 40 H 0 Z"
     id="path6"
     inkscape:connector-curvature="0"
     style="fill:none" />
</svg>
