<?xml version="1.0" encoding="UTF-8" standalone="no"?>
<svg
   xmlns:dc="http://purl.org/dc/elements/1.1/"
   xmlns:cc="http://creativecommons.org/ns#"
   xmlns:rdf="http://www.w3.org/1999/02/22-rdf-syntax-ns#"
   xmlns:svg="http://www.w3.org/2000/svg"
   xmlns="http://www.w3.org/2000/svg"
   xmlns:sodipodi="http://sodipodi.sourceforge.net/DTD/sodipodi-0.dtd"
   xmlns:inkscape="http://www.inkscape.org/namespaces/inkscape"
   height="40"
   viewBox="0 0 40 40"
   width="40"
   version="1.1"
   id="svg6"
   sodipodi:docname="ico_data.svg"
   inkscape:version="0.92.1 r15371"
   style="fill:#000000">
  <metadata
     id="metadata12">
    <rdf:RDF>
      <cc:Work
         rdf:about="">
        <dc:format>image/svg+xml</dc:format>
        <dc:type
           rdf:resource="http://purl.org/dc/dcmitype/StillImage" />
        <dc:title></dc:title>
      </cc:Work>
    </rdf:RDF>
  </metadata>
  <defs
     id="defs10" />
  <sodipodi:namedview
     pagecolor="#ffffff"
     bordercolor="#666666"
     borderopacity="1"
     objecttolerance="10"
     gridtolerance="10"
     guidetolerance="10"
     inkscape:pageopacity="0"
     inkscape:pageshadow="2"
     inkscape:window-width="1920"
     inkscape:window-height="1041"
     id="namedview8"
     showgrid="false"
     inkscape:zoom="9.8333333"
     inkscape:cx="37.016949"
     inkscape:cy="14.135593"
     inkscape:window-x="1920"
     inkscape:window-y="0"
     inkscape:window-maximized="1"
     inkscape:current-layer="svg6" />
  <path
     d="M 32.40909,4.0454545 H 24.999091 C 24.254546,1.9890909 22.304546,0.50000001 20,0.50000001 c -2.304545,0 -4.254545,1.48909089 -4.999091,3.54545449 H 7.5909088 c -1.9500001,0 -3.5454546,1.5954545 -3.5454546,3.5454545 v 28.363636 c 0,1.95 1.5954545,3.545455 3.5454546,3.545455 H 32.40909 c 1.95,0 3.545456,-1.595455 3.545456,-3.545455 V 7.590909 c 0,-1.95 -1.595456,-3.5454545 -3.545456,-3.5454545 z m -12.40909,0 c 0.975,0 1.772727,0.7977273 1.772727,1.7727273 0,0.975 -0.797727,1.7727272 -1.772727,1.7727272 -0.975,0 -1.772727,-0.7977272 -1.772727,-1.7727272 0,-0.975 0.797727,-1.7727273 1.772727,-1.7727273 z M 32.40909,35.954545 H 7.5909088 V 7.590909 H 11.136364 V 12.90909 H 28.863636 V 7.590909 h 3.545454 z"
     id="path2"
     style="fill:#ffffff;fill-opacity:1;stroke-width:1"
     inkscape:connector-curvature="0" />
</svg>
