<?xml version="1.0" encoding="UTF-8" standalone="no"?>
<!-- Created with Inkscape (http://www.inkscape.org/) -->

<svg
   xmlns:dc="http://purl.org/dc/elements/1.1/"
   xmlns:cc="http://creativecommons.org/ns#"
   xmlns:rdf="http://www.w3.org/1999/02/22-rdf-syntax-ns#"
   xmlns:svg="http://www.w3.org/2000/svg"
   xmlns="http://www.w3.org/2000/svg"
   xmlns:sodipodi="http://sodipodi.sourceforge.net/DTD/sodipodi-0.dtd"
   xmlns:inkscape="http://www.inkscape.org/namespaces/inkscape"
   width="300"
   height="40"
   viewBox="0 0 79.374997 10.583334"
   version="1.1"
   id="svg8"
   inkscape:version="0.92.1 r15371"
   sodipodi:docname="mascara.svg">
  <defs
     id="defs2">
    <marker
       inkscape:isstock="true"
       style="overflow:visible"
       id="marker4840"
       refX="0"
       refY="0"
       orient="auto"
       inkscape:stockid="Arrow1Mend">
      <path
         transform="matrix(-0.4,0,0,-0.4,-4,0)"
         style="fill:#000000;fill-opacity:1;fill-rule:evenodd;stroke:#000000;stroke-width:1.00000003pt;stroke-opacity:1"
         d="M 0,0 5,-5 -12.5,0 5,5 Z"
         id="path4838"
         inkscape:connector-curvature="0" />
    </marker>
    <marker
       inkscape:stockid="Arrow1Lend"
       orient="auto"
       refY="0"
       refX="0"
       id="Arrow1Lend"
       style="overflow:visible"
       inkscape:isstock="true">
      <path
         id="path4531"
         d="M 0,0 5,-5 -12.5,0 5,5 Z"
         style="fill:#000000;fill-opacity:1;fill-rule:evenodd;stroke:#000000;stroke-width:1.00000003pt;stroke-opacity:1"
         transform="matrix(-0.8,0,0,-0.8,-10,0)"
         inkscape:connector-curvature="0" />
    </marker>
    <marker
       inkscape:isstock="true"
       style="overflow:visible"
       id="marker4840-4"
       refX="0"
       refY="0"
       orient="auto"
       inkscape:stockid="Arrow1Mend">
      <path
         transform="matrix(-0.4,0,0,-0.4,-4,0)"
         style="fill:#000000;fill-opacity:1;fill-rule:evenodd;stroke:#000000;stroke-width:1.00000003pt;stroke-opacity:1"
         d="M 0,0 5,-5 -12.5,0 5,5 Z"
         id="path4838-0"
         inkscape:connector-curvature="0" />
    </marker>
  </defs>
  <sodipodi:namedview
     id="base"
     pagecolor="#ffffff"
     bordercolor="#666666"
     borderopacity="1.0"
     inkscape:pageopacity="0.0"
     inkscape:pageshadow="2"
     inkscape:zoom="1.979899"
     inkscape:cx="62.824043"
     inkscape:cy="-16.404334"
     inkscape:document-units="mm"
     inkscape:current-layer="layer1"
     showgrid="false"
     units="px"
     inkscape:window-width="1920"
     inkscape:window-height="1041"
     inkscape:window-x="1920"
     inkscape:window-y="0"
     inkscape:window-maximized="1"
     showguides="false" />
  <metadata
     id="metadata5">
    <rdf:RDF>
      <cc:Work
         rdf:about="">
        <dc:format>image/svg+xml</dc:format>
        <dc:type
           rdf:resource="http://purl.org/dc/dcmitype/StillImage" />
        <dc:title></dc:title>
      </cc:Work>
    </rdf:RDF>
  </metadata>
  <g
     inkscape:label="Capa 1"
     inkscape:groupmode="layer"
     id="layer1"
     transform="translate(0,-286.41663)">
    <g
       id="g4680"
       transform="translate(-2.9369288,5.2916666)">
      <g
         id="g4666">
        <g
           style="fill:#ffffff;stroke-width:0.63499999"
           id="g4553"
           transform="matrix(0.41666667,0,0,0.41666667,8.0209446,281.41663)">
          <path
             id="path4539"
             d="M 0,0 H 24 V 24 H 0 Z"
             inkscape:connector-curvature="0"
             style="fill:none;stroke-width:0.63499999" />
          <path
             id="path4541"
             d="M 19,3 H 5 C 3.9,3 3,3.9 3,5 v 14 c 0,1.1 0.9,2 2,2 h 14 c 1.1,0 2,-0.9 2,-2 V 5 C 21,3.9 20.1,3 19,3 Z M 14,17 H 12 V 9 H 10 V 7 h 4 z"
             inkscape:connector-curvature="0"
             style="stroke-width:0.63499999" />
        </g>
        <g
           style="fill:#ffffff;stroke-width:0.63499999"
           id="g4569"
           transform="matrix(0.41666667,0,0,0.41666667,23.255307,281.41663)">
          <path
             id="path4555"
             d="M 0,0 H 24 V 24 H 0 Z"
             inkscape:connector-curvature="0"
             style="fill:none;stroke-width:0.63499999" />
          <path
             id="path4557"
             d="M 19,3 H 5 C 3.9,3 3,3.9 3,5 v 14 c 0,1.1 0.9,2 2,2 h 14 c 1.1,0 2,-0.9 2,-2 V 5 C 21,3.9 20.1,3 19,3 Z m -4,8 c 0,1.11 -0.9,2 -2,2 h -2 v 2 h 4 v 2 H 9 v -4 c 0,-1.11 0.9,-2 2,-2 h 2 V 9 H 9 V 7 h 4 c 1.1,0 2,0.89 2,2 z"
             inkscape:connector-curvature="0"
             style="stroke-width:0.63499999" />
        </g>
        <g
           style="fill:#ffffff;stroke-width:0.63499999"
           id="g4585"
           transform="matrix(0.41666667,0,0,0.41666667,38.485502,281.41663)">
          <path
             id="path4571"
             d="m 0.01,0 h 24 v 24 h -24 z"
             inkscape:connector-curvature="0"
             style="fill:none;stroke-width:0.63499999" />
          <path
             id="path4573"
             d="m 19.01,3 h -14 c -1.1,0 -2,0.9 -2,2 v 14 c 0,1.1 0.9,2 2,2 h 14 c 1.1,0 2,-0.9 2,-2 V 5 c 0,-1.1 -0.9,-2 -2,-2 z m -4,7.5 c 0,0.83 -0.67,1.5 -1.5,1.5 0.83,0 1.5,0.67 1.5,1.5 V 15 c 0,1.11 -0.9,2 -2,2 h -4 v -2 h 4 v -2 h -2 v -2 h 2 V 9 h -4 V 7 h 4 c 1.1,0 2,0.89 2,2 z"
             inkscape:connector-curvature="0"
             style="stroke-width:0.63499999" />
        </g>
      </g>
      <g
         aria-label="Máscara"
         style="font-style:normal;font-variant:normal;font-weight:normal;font-stretch:normal;font-size:3.52777767px;line-height:6.61458302px;font-family:robotto;-inkscape-font-specification:robotto;letter-spacing:0px;word-spacing:0px;fill:#000000;fill-opacity:1;stroke:none;stroke-width:0.26458332"
         id="text4589">
        <path
           d="m 59.143539,284.7611 1.118967,2.85288 h 0.01447 l 1.118967,-2.85288 h 0.607715 v 3.51124 h -0.475079 v -1.38906 l 0.04823,-1.42765 -0.01206,-0.002 -1.13826,2.81912 h -0.315915 l -1.133436,-2.81189 -0.01206,0.002 0.04582,1.42042 v 1.38906 h -0.475079 v -3.51124 z"
           style="font-style:normal;font-variant:normal;font-weight:normal;font-stretch:normal;font-size:4.93888903px;font-family:Roboto;-inkscape-font-specification:Roboto;fill:#ffffff;fill-opacity:1;stroke-width:0.26458332"
           id="path4540"
           inkscape:connector-curvature="0" />
        <path
           d="m 64.391108,288.27234 q -0.02412,-0.11817 -0.03858,-0.2074 -0.01206,-0.0916 -0.01447,-0.18327 -0.132636,0.1881 -0.347266,0.31591 -0.212218,0.1254 -0.458198,0.1254 -0.407554,0 -0.622184,-0.20739 -0.212218,-0.20981 -0.212218,-0.57637 0,-0.37379 0.301446,-0.5836 0.303857,-0.21221 0.822344,-0.21221 h 0.516076 v -0.25804 q 0,-0.2291 -0.139871,-0.36174 -0.139871,-0.13504 -0.395497,-0.13504 -0.229099,0 -0.373793,0.11816 -0.142282,0.11576 -0.142282,0.27974 H 62.83324 l -0.0048,-0.0145 q -0.01447,-0.28456 0.267684,-0.52089 0.284565,-0.23634 0.733116,-0.23634 0.443728,0 0.713824,0.22669 0.270095,0.22428 0.270095,0.64871 v 1.25643 q 0,0.13987 0.01447,0.27009 0.01447,0.13023 0.05305,0.25563 z m -0.788582,-0.34727 q 0.258037,0 0.465432,-0.13263 0.207395,-0.13264 0.270096,-0.30386 v -0.42444 h -0.532957 q -0.286976,0 -0.460609,0.1447 -0.171221,0.14469 -0.171221,0.34003 0,0.17363 0.10852,0.27492 0.108521,0.10128 0.320739,0.10128 z m 0.407555,-3.27008 h 0.55466 l 0.0048,0.0145 -0.651123,0.62701 h -0.3545 z"
           style="font-style:normal;font-variant:normal;font-weight:normal;font-stretch:normal;font-size:4.93888903px;font-family:Roboto;-inkscape-font-specification:Roboto;fill:#ffffff;fill-opacity:1;stroke-width:0.26458332"
           id="path4542"
           inkscape:connector-curvature="0" />
        <path
           d="m 67.024539,287.58022 q 0,-0.15675 -0.120578,-0.25804 -0.118167,-0.10128 -0.450963,-0.17604 -0.475079,-0.1037 -0.716236,-0.27974 -0.238745,-0.17846 -0.238745,-0.48473 0,-0.31833 0.270096,-0.5426 0.270095,-0.22428 0.704177,-0.22428 0.455786,0 0.72347,0.23392 0.270096,0.23393 0.258038,0.56913 l -0.0048,0.0145 H 66.9956 q 0,-0.17122 -0.144694,-0.30627 -0.142282,-0.13745 -0.378616,-0.13745 -0.253214,0 -0.376204,0.11093 -0.12299,0.11093 -0.12299,0.26768 0,0.15434 0.10852,0.24357 0.108521,0.0892 0.441317,0.15916 0.494371,0.10611 0.735528,0.28939 0.241157,0.18087 0.241157,0.48714 0,0.34726 -0.282154,0.56189 -0.279741,0.21463 -0.733116,0.21463 -0.499194,0 -0.786171,-0.25321 -0.286976,-0.25322 -0.272507,-0.59084 l 0.0048,-0.0145 h 0.453375 q 0.01206,0.25322 0.188102,0.37139 0.176044,0.11575 0.412378,0.11575 0.253215,0 0.395497,-0.10129 0.144694,-0.10369 0.144694,-0.27009 z"
           style="font-style:normal;font-variant:normal;font-weight:normal;font-stretch:normal;font-size:4.93888903px;font-family:Roboto;-inkscape-font-specification:Roboto;fill:#ffffff;fill-opacity:1;stroke-width:0.26458332"
           id="path4544"
           inkscape:connector-curvature="0" />
        <path
           d="m 69.153953,287.9516 q 0.236334,0 0.41479,-0.14469 0.180867,-0.14711 0.180867,-0.35933 h 0.426848 l 0.0048,0.0145 q 0.01206,0.33762 -0.301446,0.60048 -0.311092,0.26045 -0.725882,0.26045 -0.56913,0 -0.870575,-0.37138 -0.301446,-0.37138 -0.301446,-0.93328 v -0.10128 q 0,-0.55707 0.301446,-0.92845 0.303857,-0.3738 0.870575,-0.3738 0.458198,0 0.747586,0.2701 0.2918,0.27009 0.282153,0.66318 l -0.0048,0.0145 H 69.74961 q 0,-0.23875 -0.168809,-0.40515 -0.16881,-0.1688 -0.426848,-0.1688 -0.373793,0 -0.535368,0.27009 -0.159163,0.26768 -0.159163,0.65836 v 0.10128 q 0,0.40032 0.159163,0.66801 0.159164,0.26527 0.535368,0.26527 z"
           style="font-style:normal;font-variant:normal;font-weight:normal;font-stretch:normal;font-size:4.93888903px;font-family:Roboto;-inkscape-font-specification:Roboto;fill:#ffffff;fill-opacity:1;stroke-width:0.26458332"
           id="path4546"
           inkscape:connector-curvature="0" />
        <path
           d="m 72.32034,288.27234 q -0.02412,-0.11817 -0.03858,-0.2074 -0.01206,-0.0916 -0.01447,-0.18327 -0.132636,0.1881 -0.347265,0.31591 -0.212218,0.1254 -0.458198,0.1254 -0.407555,0 -0.622184,-0.20739 -0.212218,-0.20981 -0.212218,-0.57637 0,-0.37379 0.301446,-0.5836 0.303857,-0.21221 0.822344,-0.21221 h 0.516075 v -0.25804 q 0,-0.2291 -0.139871,-0.36174 -0.13987,-0.13504 -0.395497,-0.13504 -0.229098,0 -0.373792,0.11816 -0.142283,0.11576 -0.142283,0.27974 h -0.453374 l -0.0048,-0.0145 q -0.01447,-0.28456 0.267684,-0.52089 0.284565,-0.23634 0.733117,-0.23634 0.443728,0 0.713824,0.22669 0.270095,0.22428 0.270095,0.64871 v 1.25643 q 0,0.13987 0.01447,0.27009 0.01447,0.13023 0.05306,0.25563 z m -0.788583,-0.34727 q 0.258038,0 0.465433,-0.13263 0.207395,-0.13264 0.270095,-0.30386 v -0.42444 h -0.532956 q -0.286976,0 -0.460609,0.1447 -0.171221,0.14469 -0.171221,0.34003 0,0.17363 0.10852,0.27492 0.108521,0.10128 0.320738,0.10128 z"
           style="font-style:normal;font-variant:normal;font-weight:normal;font-stretch:normal;font-size:4.93888903px;font-family:Roboto;-inkscape-font-specification:Roboto;fill:#ffffff;fill-opacity:1;stroke-width:0.26458332"
           id="path4548"
           inkscape:connector-curvature="0" />
        <path
           d="m 74.671618,286.08264 -0.243568,-0.0145 q -0.188102,0 -0.318327,0.0892 -0.127813,0.0892 -0.197748,0.25081 v 1.86414 h -0.475079 v -2.60932 h 0.424436 l 0.04582,0.38103 q 0.110932,-0.20257 0.272507,-0.31591 0.163986,-0.11335 0.376204,-0.11335 0.05306,0 0.101286,0.01 0.04823,0.007 0.07958,0.0169 z"
           style="font-style:normal;font-variant:normal;font-weight:normal;font-stretch:normal;font-size:4.93888903px;font-family:Roboto;-inkscape-font-specification:Roboto;fill:#ffffff;fill-opacity:1;stroke-width:0.26458332"
           id="path4550"
           inkscape:connector-curvature="0" />
        <path
           d="m 76.738331,288.27234 q -0.02412,-0.11817 -0.03858,-0.2074 -0.01206,-0.0916 -0.01447,-0.18327 -0.132636,0.1881 -0.347266,0.31591 -0.212218,0.1254 -0.458197,0.1254 -0.407555,0 -0.622185,-0.20739 -0.212218,-0.20981 -0.212218,-0.57637 0,-0.37379 0.301446,-0.5836 0.303858,-0.21221 0.822345,-0.21221 h 0.516075 v -0.25804 q 0,-0.2291 -0.139871,-0.36174 -0.139871,-0.13504 -0.395497,-0.13504 -0.229099,0 -0.373793,0.11816 -0.142282,0.11576 -0.142282,0.27974 h -0.453375 l -0.0048,-0.0145 q -0.01447,-0.28456 0.267684,-0.52089 0.284565,-0.23634 0.733116,-0.23634 0.443729,0 0.713824,0.22669 0.270096,0.22428 0.270096,0.64871 v 1.25643 q 0,0.13987 0.01447,0.27009 0.01447,0.13023 0.05306,0.25563 z m -0.788582,-0.34727 q 0.258038,0 0.465432,-0.13263 0.207395,-0.13264 0.270096,-0.30386 v -0.42444 h -0.532956 q -0.286977,0 -0.46061,0.1447 -0.171221,0.14469 -0.171221,0.34003 0,0.17363 0.108521,0.27492 0.10852,0.10128 0.320738,0.10128 z"
           style="font-style:normal;font-variant:normal;font-weight:normal;font-stretch:normal;font-size:4.93888903px;font-family:Roboto;-inkscape-font-specification:Roboto;fill:#ffffff;fill-opacity:1;stroke-width:0.26458332"
           id="path4552"
           inkscape:connector-curvature="0" />
      </g>
    </g>
  </g>
</svg>
