<?xml version="1.0" encoding="UTF-8" standalone="no"?>
<!-- Created with Inkscape (http://www.inkscape.org/) -->

<svg
   xmlns:dc="http://purl.org/dc/elements/1.1/"
   xmlns:cc="http://creativecommons.org/ns#"
   xmlns:rdf="http://www.w3.org/1999/02/22-rdf-syntax-ns#"
   xmlns:svg="http://www.w3.org/2000/svg"
   xmlns="http://www.w3.org/2000/svg"
   xmlns:sodipodi="http://sodipodi.sourceforge.net/DTD/sodipodi-0.dtd"
   xmlns:inkscape="http://www.inkscape.org/namespaces/inkscape"
   width="300"
   height="50"
   viewBox="0 0 79.374997 13.229168"
   version="1.1"
   id="svg8"
   inkscape:version="0.92.1 r15371"
   sodipodi:docname="mask.svg">
  <defs
     id="defs2">
    <marker
       inkscape:isstock="true"
       style="overflow:visible"
       id="marker4840"
       refX="0"
       refY="0"
       orient="auto"
       inkscape:stockid="Arrow1Mend">
      <path
         transform="matrix(-0.4,0,0,-0.4,-4,0)"
         style="fill:#000000;fill-opacity:1;fill-rule:evenodd;stroke:#000000;stroke-width:1.00000003pt;stroke-opacity:1"
         d="M 0,0 5,-5 -12.5,0 5,5 Z"
         id="path4838"
         inkscape:connector-curvature="0" />
    </marker>
    <marker
       inkscape:stockid="Arrow1Lend"
       orient="auto"
       refY="0"
       refX="0"
       id="Arrow1Lend"
       style="overflow:visible"
       inkscape:isstock="true">
      <path
         id="path4531"
         d="M 0,0 5,-5 -12.5,0 5,5 Z"
         style="fill:#000000;fill-opacity:1;fill-rule:evenodd;stroke:#000000;stroke-width:1.00000003pt;stroke-opacity:1"
         transform="matrix(-0.8,0,0,-0.8,-10,0)"
         inkscape:connector-curvature="0" />
    </marker>
    <marker
       inkscape:isstock="true"
       style="overflow:visible"
       id="marker4840-4"
       refX="0"
       refY="0"
       orient="auto"
       inkscape:stockid="Arrow1Mend">
      <path
         transform="matrix(-0.4,0,0,-0.4,-4,0)"
         style="fill:#000000;fill-opacity:1;fill-rule:evenodd;stroke:#000000;stroke-width:1.00000003pt;stroke-opacity:1"
         d="M 0,0 5,-5 -12.5,0 5,5 Z"
         id="path4838-0"
         inkscape:connector-curvature="0" />
    </marker>
  </defs>
  <sodipodi:namedview
     id="base"
     pagecolor="#ffffff"
     bordercolor="#666666"
     borderopacity="1.0"
     inkscape:pageopacity="0"
     inkscape:pageshadow="2"
     inkscape:zoom="1.979899"
     inkscape:cx="152.22255"
     inkscape:cy="-14.384029"
     inkscape:document-units="mm"
     inkscape:current-layer="layer1"
     showgrid="false"
     units="px"
     inkscape:window-width="1920"
     inkscape:window-height="1014"
     inkscape:window-x="0"
     inkscape:window-y="27"
     inkscape:window-maximized="1"
     showguides="false" />
  <metadata
     id="metadata5">
    <rdf:RDF>
      <cc:Work
         rdf:about="">
        <dc:format>image/svg+xml</dc:format>
        <dc:type
           rdf:resource="http://purl.org/dc/dcmitype/StillImage" />
        <dc:title></dc:title>
      </cc:Work>
    </rdf:RDF>
  </metadata>
  <g
     inkscape:label="Capa 1"
     inkscape:groupmode="layer"
     id="layer1"
     transform="translate(0,-283.77081)">
    <g
       id="g4680"
       transform="translate(0.6020628,3.9687633)">
      <g
         id="g4666">
        <g
           style="fill:#ffffff;stroke-width:0.63499999"
           id="g4553"
           transform="matrix(0.41666667,0,0,0.41666667,8.0209446,281.41663)">
          <path
             id="path4539"
             d="M 0,0 H 24 V 24 H 0 Z"
             inkscape:connector-curvature="0"
             style="fill:none;stroke-width:0.63499999" />
          <path
             id="path4541"
             d="M 19,3 H 5 C 3.9,3 3,3.9 3,5 v 14 c 0,1.1 0.9,2 2,2 h 14 c 1.1,0 2,-0.9 2,-2 V 5 C 21,3.9 20.1,3 19,3 Z M 14,17 H 12 V 9 H 10 V 7 h 4 z"
             inkscape:connector-curvature="0"
             style="stroke-width:0.63499999" />
        </g>
        <g
           style="fill:#ffffff;stroke-width:0.63499999"
           id="g4569"
           transform="matrix(0.41666667,0,0,0.41666667,23.255307,281.41663)">
          <path
             id="path4555"
             d="M 0,0 H 24 V 24 H 0 Z"
             inkscape:connector-curvature="0"
             style="fill:none;stroke-width:0.63499999" />
          <path
             id="path4557"
             d="M 19,3 H 5 C 3.9,3 3,3.9 3,5 v 14 c 0,1.1 0.9,2 2,2 h 14 c 1.1,0 2,-0.9 2,-2 V 5 C 21,3.9 20.1,3 19,3 Z m -4,8 c 0,1.11 -0.9,2 -2,2 h -2 v 2 h 4 v 2 H 9 v -4 c 0,-1.11 0.9,-2 2,-2 h 2 V 9 H 9 V 7 h 4 c 1.1,0 2,0.89 2,2 z"
             inkscape:connector-curvature="0"
             style="stroke-width:0.63499999" />
        </g>
        <g
           style="fill:#ffffff;stroke-width:0.63499999"
           id="g4585"
           transform="matrix(0.41666667,0,0,0.41666667,38.485502,281.41663)">
          <path
             id="path4571"
             d="m 0.01,0 h 24 v 24 h -24 z"
             inkscape:connector-curvature="0"
             style="fill:none;stroke-width:0.63499999" />
          <path
             id="path4573"
             d="m 19.01,3 h -14 c -1.1,0 -2,0.9 -2,2 v 14 c 0,1.1 0.9,2 2,2 h 14 c 1.1,0 2,-0.9 2,-2 V 5 c 0,-1.1 -0.9,-2 -2,-2 z m -4,7.5 c 0,0.83 -0.67,1.5 -1.5,1.5 0.83,0 1.5,0.67 1.5,1.5 V 15 c 0,1.11 -0.9,2 -2,2 h -4 v -2 h 4 v -2 h -2 v -2 h 2 V 9 h -4 V 7 h 4 c 1.1,0 2,0.89 2,2 z"
             inkscape:connector-curvature="0"
             style="stroke-width:0.63499999" />
        </g>
      </g>
      <text
         id="text4589"
         y="288.27234"
         x="58.101742"
         style="font-style:normal;font-variant:normal;font-weight:normal;font-stretch:normal;font-size:3.52777767px;line-height:6.61458302px;font-family:robotto;-inkscape-font-specification:robotto;letter-spacing:0px;word-spacing:0px;fill:#000000;fill-opacity:1;stroke:none;stroke-width:0.26458332"
         xml:space="preserve"><tspan
           style="font-style:normal;font-variant:normal;font-weight:normal;font-stretch:normal;font-size:4.93888903px;font-family:Roboto;-inkscape-font-specification:Roboto;fill:#ffffff;fill-opacity:1;stroke-width:0.26458332"
           y="288.27234"
           x="58.101742"
           id="tspan4587"
           sodipodi:role="line">Mask</tspan></text>
    </g>
  </g>
</svg>
